<?xml version="1.0" encoding="utf-8"?>
<!-- Generator: Adobe Illustrator 24.1.2, SVG Export Plug-In . SVG Version: 6.00 Build 0)  -->
<svg version="1.1" id="Layer_1" xmlns="http://www.w3.org/2000/svg" xmlns:xlink="http://www.w3.org/1999/xlink" x="0px" y="0px"
	 viewBox="0 0 144 144" style="enable-background:new 0 0 144 144;" xml:space="preserve">
<style type="text/css">
	.st0{fill:#FFFFFF;}
	.st1{fill:#333333;}
</style>
<path class="st0" d="M123,15H21l9,102l42,12l42-12L123,15L123,15z"/>
<path class="st1" d="M72,24v95.7l33.6-9.6l7.5-86.1H72z"/>
<path class="st0" d="M72,75V63h25.8l-2.1,34.5L72,105.3V92.7l12.3-4.2L85.2,75C85.2,75,72,75,72,75z M98.7,51l0.9-12H72v12H98.7z"/>
<path class="st1" d="M72,92.7v12.6l-23.7-7.8L47.1,81h12l0.6,7.5L72,92.7z M57.3,51H72V39H44.7l2.1,36H72V63H58.2L57.3,51z"/>
</svg>
