<?xml version="1.0" encoding="utf-8"?>
<!-- Generator: Adobe Illustrator 24.1.2, SVG Export Plug-In . SVG Version: 6.00 Build 0)  -->
<svg version="1.1" id="Layer_1" xmlns="http://www.w3.org/2000/svg" xmlns:xlink="http://www.w3.org/1999/xlink" x="0px" y="0px"
	 viewBox="0 0 144 144" style="enable-background:new 0 0 144 144;" xml:space="preserve">
<style type="text/css">
	.st0{fill:#FFFFFF;}
</style>
<path class="st0" d="M69,12c-19.9,0-36,21.8-36,48.6c0,14.5,4.7,27.5,12.2,36.4c-0.1,0.6-0.2,1.3-0.2,2c0,5,4,9,9,9s9-4,9-9
	s-4-9-9-9c-0.9,0-1.8,0.2-2.7,0.5C45.6,83.2,42,72.5,42,60.6C42,38.8,54.1,21,69,21c11.5,0,21.3,10.6,25.2,25.6
	c3.4,1,6.7,2.3,10,3.9C100.7,28.5,86.3,12,69,12z"/>
<path class="st0" d="M106.5,60.3C94.7,53.1,81.4,49.9,70,51.4c-1.7-2-4.1-3.4-7-3.4c-5,0-9,4-9,9s4,9,9,9c3.8,0,7.1-2.4,8.4-5.7
	c9.4-1.1,20.4,1.6,30.5,7.7c19.2,11.6,29,31.7,21.8,44.7c-2.5,4.5-6.9,7.7-12.7,9.3c-6.9,1.8-15,1.2-23.2-1.6
	c-2.5,2.3-5.2,4.5-8.2,6.5c7.7,3.4,15.6,5.1,23,5.1c3.7,0,7.3-0.4,10.7-1.3c8.2-2.2,14.5-6.9,18.2-13.6
	C141,99.8,129.8,74.4,106.5,60.3z"/>
<path class="st0" d="M105,87c0-5-4-9-9-9s-9,4-9,9c0,2,0.7,3.8,1.8,5.3C85,100.7,77.6,109,67.6,115c-11.6,7-24.6,9.6-34.7,6.9
	c-5.8-1.6-10.2-4.8-12.7-9.3c-5.1-9.3-1.6-22.1,7.8-33c-1-3.4-1.7-7-2.1-10.7c-15.2,14.4-21.3,34-13.6,48c3.7,6.7,10,11.4,18.2,13.6
	c3.4,0.9,7,1.3,10.7,1.3c10,0,21-3.2,31-9.2c11.5-7,20-16.7,24.6-26.9C101.4,95.4,105,91.6,105,87z"/>
</svg>
