<?xml version="1.0" encoding="utf-8"?>
<!-- Generator: Adobe Illustrator 24.1.2, SVG Export Plug-In . SVG Version: 6.00 Build 0)  -->
<svg version="1.1" id="Layer_1" xmlns="http://www.w3.org/2000/svg" xmlns:xlink="http://www.w3.org/1999/xlink" x="0px" y="0px"
	 viewBox="0 0 144 144" style="enable-background:new 0 0 144 144;" xml:space="preserve">
<style type="text/css">
	.st0{fill:#FFFFFF;}
</style>
<path class="st0" d="M72,136.3c-1.7,0-3.4-0.4-4.9-1.3l-15.7-9.3c-2.3-1.3-1.2-1.8-0.4-2c3.1-1.1,3.8-1.3,7.1-3.2
	c0.4-0.2,0.8-0.1,1.2,0.1l12.1,7.2c0.4,0.2,1.1,0.2,1.5,0l47.1-27.2c0.4-0.2,0.7-0.8,0.7-1.3V44.8c0-0.5-0.3-1-0.7-1.3L72.8,16.3
	c-0.4-0.3-1-0.3-1.4,0L24.2,43.5c-0.5,0.3-0.7,0.8-0.7,1.3v54.3c0,0.5,0.3,1,0.7,1.3l12.9,7.4c7,3.5,11.3-0.6,11.3-4.8V49.4
	c0-0.8,0.6-1.4,1.4-1.4h6c0.7,0,1.4,0.6,1.4,1.4v53.7c0,9.3-5.1,14.7-13.9,14.7c-2.7,0-4.9,0-10.9-2.9l-12.4-7.1
	c-3.1-1.8-4.9-5.1-4.9-8.6V44.8c0-3.5,1.9-6.8,4.9-8.6L67.1,9c3-1.7,6.9-1.7,9.9,0l47.1,27.2c3,1.8,4.9,5,4.9,8.6v54.3
	c0,3.5-1.9,6.8-4.9,8.6L77,134.9C75.5,135.8,73.8,136.2,72,136.3"/>
<path class="st0" d="M86.6,98.8c-20.6,0-24.9-9.5-24.9-17.4c0-0.8,0.6-1.4,1.4-1.4h6.1c0.7,0,1.2,0.5,1.3,1.2
	c0.9,6.2,3.7,9.3,16.1,9.3c9.9,0,14.1-2.2,14.1-7.5c0-3-1.2-5.3-16.6-6.8C71.2,75,63.2,72.1,63.2,61.8c0-9.5,8-15.2,21.4-15.2
	c15.1,0,22.6,5.2,23.5,16.5c0,0.4-0.1,0.8-0.4,1.1c-0.3,0.3-0.6,0.4-1,0.4h-6.1c-0.6,0-1.2-0.4-1.3-1.1c-1.5-6.5-5-8.6-14.7-8.6
	c-10.8,0-12.1,3.8-12.1,6.6c0,3.4,1.5,4.4,16.1,6.4c14.5,1.9,21.3,4.6,21.3,14.8C110,93,101.4,98.9,86.6,98.8"/>
</svg>
