<?xml version="1.0" encoding="utf-8"?>
<!-- Generator: Adobe Illustrator 24.1.2, SVG Export Plug-In . SVG Version: 6.00 Build 0)  -->
<svg version="1.1" id="Layer_1" xmlns="http://www.w3.org/2000/svg" xmlns:xlink="http://www.w3.org/1999/xlink" x="0px" y="0px"
	 viewBox="0 0 200 200" style="enable-background:new 0 0 200 200;" xml:space="preserve">
<style type="text/css">
	.st0{fill:none;stroke:#202F66;stroke-width:4;stroke-miterlimit:20;}
	.st1{fill:none;stroke:#202F66;stroke-width:4;stroke-linecap:round;stroke-miterlimit:20;}
	.st2{fill:#202F66;}
	.st3{fill:none;stroke:#202F66;stroke-width:2;stroke-linecap:round;stroke-linejoin:round;stroke-miterlimit:20;}
	.st4{fill:none;stroke:#1F212B;stroke-width:2;stroke-linecap:round;stroke-linejoin:round;stroke-miterlimit:20;}
</style>
<path class="st0" d="M78,116c0,0-13.5,15.1-15.5,17.1s-6,6-14-2S28,81.1,28,63.1s8.5-31,24.4-32.8C67.8,28.7,84,36,84,36"/>
<path class="st0" d="M142.4,113.9c5.4-4.2,5.9-17.4,5-25.5c-1-8,0.7-12.8,0.5-22.6c-6.5-26.6-40.6-44.2-60.4-31.8
	S69.8,74.4,70.8,82.2s-4.9,13.1-1.3,24.4S84.8,120,89.6,120c4.8,0,9.8,1.9,9.8,7.1s-0.6,20.7,0.6,33.3c1.1,12.6,8,16.8,13,17.4
	c15.8,2.1,21.3-8.6,22.8-13.4s4.1-24.9,4.6-36.2c0.4-8.8,6.7-8.6,6.7-8.6s7.2,4.7,19.9,0.8c4.2-1.3,6.2,1.3,2.9,4.3
	c-3.3,3.1-12,9.1-28.2,6.6"/>
<path class="st0" d="M148.2,67.2c0,0-13-4.5-17.4,4.4c-3.8,7.7,8,36.6,16.4,47.2"/>
<path class="st0" d="M69.1,73.2c0,0,15.3-9.2,23.6-3.7s5.1,26.7,1.5,34.5c-3.6,7.8-4.7,15.6-4.7,15.6s-0.9,10.2-15.2,11.9
	c-5.6,0.9-3.8,4.6,0.3,5.7c4.1,1.1,17.4,4.1,25.1-7.7"/>
<path class="st1" d="M115.2,31.6c0,0,34.7-8.3,50.8,11.3c13.1,16-9.5,67.8-20.4,76.3"/>
<path class="st2" d="M138.3,76.1c-3.3,0.3-6.8-3.9-0.2-4.7C144.4,70.6,142.6,75.6,138.3,76.1z"/>
<path class="st2" d="M86.4,77.7c-3.6-0.5-6.4-5.9,1-5.1C94.3,73.3,91.2,78.3,86.4,77.7z"/>
<path class="st3" d="M79,54.9c-0.5,1.4-0.9,2.8-1.3,4.4"/>
<path class="st3" d="M95.6,37c-5.6,1.8-11.5,5.9-15.5,14.9"/>
<path class="st3" d="M110.1,36.6c0,0-4.2-1.2-9.7-0.6"/>
<path class="st3" d="M40.3,43.6c-3.8,4.1-6.7,10.9-6.3,21.9"/>
<path class="st3" d="M56.6,37.1c0,0-6.8-0.5-13,3.7"/>
<path class="st4" d="M107.1,165.2c1.3,3.4,3.7,6.5,8.2,7.2"/>
<path class="st4" d="M105.7,155.2c0,0-0.2,2.7,0.4,6"/>
</svg>
