<?xml version="1.0" encoding="utf-8"?>
<!-- Generator: Adobe Illustrator 24.1.2, SVG Export Plug-In . SVG Version: 6.00 Build 0)  -->
<svg version="1.1" id="Layer_1" xmlns="http://www.w3.org/2000/svg" xmlns:xlink="http://www.w3.org/1999/xlink" x="0px" y="0px"
	 viewBox="0 0 144 144" style="enable-background:new 0 0 144 144;" xml:space="preserve">
<style type="text/css">
	.st0{fill:#F2F2F2;}
	.st1{fill:#FFFFFF;}
	.st2{fill:#DDDAD9;}
</style>
<path class="st0" d="M24,111l45.7-85.7c1-1.8,3.6-1.8,4.5,0.1L90,57L24,111z"/>
<path class="st1" d="M24,111L40.6,8.4c0.4-2.7,4-3.3,5.3-0.9L78,69L24,111z"/>
<path class="st2" d="M24,111l0.6-0.5l52.6-43L62.4,39L24,111z"/>
<path class="st1" d="M24,111l80-77.1c1.7-1.6,4.5-0.7,4.8,1.6L120,111l-45,26.2c-1.8,1-4.1,1-5.9,0L24,111z"/>
</svg>
