<?xml version="1.0" encoding="utf-8"?>
<!-- Generator: Adobe Illustrator 24.1.2, SVG Export Plug-In . SVG Version: 6.00 Build 0)  -->
<svg version="1.1" id="Layer_1" xmlns="http://www.w3.org/2000/svg" xmlns:xlink="http://www.w3.org/1999/xlink" x="0px" y="0px"
	 viewBox="0 0 160 160" style="enable-background:new 0 0 160 160;" xml:space="preserve">
<style type="text/css">
	.st0{fill:#FFFFFF;}
	.st1{fill:#333333;}
</style>
<path class="st0" d="M93,80c0,7.2-5.8,13-13,13s-13-5.8-13-13s5.8-13,13-13S93,72.8,93,80z"/>
<path class="st1" d="M80,94c-7.7,0-14-6.3-14-14s6.3-14,14-14s14,6.3,14,14S87.7,94,80,94z M80,68c-6.6,0-12,5.4-12,12s5.4,12,12,12
	s12-5.4,12-12S86.6,68,80,68z"/>
<g>
	<path class="st0" d="M48.9,151c-3.4,0-6.5-0.8-9.3-2.3c-4.6-2.6-7.7-7-9.4-13.2c-1.9-7.2-1.7-16.8,0.7-27.8C11.9,101.1,1,91.1,1,80
		c0-11.1,10.9-21.1,30-27.7c-2.4-11-2.6-20.5-0.7-27.8c1.7-6.2,4.8-10.7,9.4-13.2C42.4,9.8,45.5,9,48.9,9c8.8,0,19.8,5.5,31.1,15.4
		C91.3,14.5,102.3,9,111.1,9c3.4,0,6.5,0.8,9.3,2.3c4.6,2.6,7.7,7,9.4,13.2c1.9,7.2,1.7,16.8-0.7,27.8c19.1,6.6,30,16.6,30,27.7
		s-10.9,21.1-30,27.7c2.4,11,2.6,20.5,0.7,27.8c-1.7,6.2-4.8,10.6-9.4,13.2c-2.7,1.5-5.8,2.3-9.3,2.3c-8.8,0-19.8-5.5-31.1-15.4
		C68.7,145.5,57.7,151,48.9,151z M38.7,110c-2,9.4-2.2,17.5-0.6,23.4c1.1,4.1,3,6.9,5.6,8.4c1.5,0.9,3.3,1.3,5.3,1.3
		c6.8,0,15.7-4.6,25.2-12.9c-4.8-4.8-9.4-10.2-13.9-16.2C52.7,113.1,45.4,111.8,38.7,110z M85.8,130.1c9.5,8.3,18.5,12.9,25.2,12.9
		c2,0,3.8-0.4,5.3-1.3c2.6-1.5,4.5-4.3,5.6-8.3c1.6-5.9,1.4-13.9-0.6-23.4c-6.7,1.8-14,3.1-21.7,3.9
		C95.2,119.9,90.6,125.3,85.8,130.1z M71.1,114.8c2.9,3.6,5.9,6.9,8.9,9.9c3-3,6-6.3,8.9-9.9c-3,0.1-6,0.2-8.9,0.2
		C77.1,115,74.1,114.9,71.1,114.8z M64.7,106.4c5,0.4,10.1,0.6,15.3,0.6c5.2,0,10.3-0.2,15.3-0.6c3-4.2,5.8-8.5,8.4-13
		c2.5-4.3,4.9-8.8,7.1-13.4c-2.2-4.6-4.6-9-7.1-13.4c-2.6-4.4-5.4-8.8-8.4-13C90.3,53.2,85.2,53,80,53c-5.2,0-10.3,0.2-15.3,0.6
		c-3,4.2-5.8,8.5-8.4,13c-2.5,4.3-4.9,8.8-7.1,13.4c2.2,4.5,4.5,9,7.1,13.4C58.9,97.8,61.7,102.2,64.7,106.4z M115,89.6
		c-1.4,2.7-2.9,5.3-4.4,7.9c-1.5,2.6-3.1,5.1-4.8,7.7c4.7-0.7,9.3-1.7,13.5-2.8C118.2,98.2,116.7,93.9,115,89.6z M40.6,102.3
		c4.3,1.1,8.8,2.1,13.5,2.8c-1.7-2.6-3.3-5.1-4.8-7.7c-1.5-2.5-3-5.2-4.4-7.9C43.3,93.9,41.8,98.2,40.6,102.3z M119.6,80
		c3.1,6.8,5.5,13.5,7.4,20c14.8-5.2,24-12.8,24-20s-9.1-14.7-24-20C125.2,66.5,122.7,73.2,119.6,80z M32.9,60C18.1,65.3,9,72.9,9,80
		c0,7.1,9.1,14.7,23.9,20c1.9-6.5,4.4-13.2,7.4-19.9C37.3,73.2,34.8,66.5,32.9,60z M40.6,57.7c1.2,4.1,2.7,8.4,4.4,12.7
		c1.4-2.7,2.9-5.3,4.4-7.9c1.5-2.6,3.1-5.1,4.8-7.7C49.4,55.6,44.9,56.6,40.6,57.7z M105.8,54.9c1.7,2.6,3.3,5.1,4.8,7.7
		c1.5,2.5,3,5.2,4.4,7.9c1.7-4.4,3.2-8.6,4.4-12.7C115.1,56.6,110.6,55.6,105.8,54.9z M48.9,17c-2,0-3.8,0.4-5.3,1.3
		c-2.6,1.5-4.5,4.3-5.6,8.4c-1.6,5.9-1.3,13.9,0.6,23.4c6.7-1.8,14-3.1,21.7-3.9c4.4-5.9,9.1-11.4,13.9-16.2
		C64.7,21.6,55.7,17,48.9,17z M99.7,46c7.7,0.8,14.9,2.2,21.7,3.9c2-9.4,2.2-17.5,0.6-23.4c-1.1-4-3-6.8-5.6-8.3
		c-1.5-0.9-3.3-1.3-5.3-1.3c-6.8,0-15.7,4.6-25.2,12.9C90.6,34.7,95.2,40.1,99.7,46z M80,45c2.9,0,5.9,0.1,8.9,0.2
		C86,41.7,83,38.4,80,35.3c-3,3-6,6.3-8.9,9.9C74.1,45.1,77.1,45,80,45z"/>
	<path class="st1" d="M48.9,10c9,0,20,5.8,31.1,15.7c11.1-9.9,22.1-15.7,31-15.7c3.2,0,6.2,0.7,8.8,2.2c4.3,2.4,7.3,6.7,8.9,12.6
		c2.2,7.8,1.7,17.5-0.9,28.2c18.4,6.2,30.1,15.9,30.1,27s-11.7,20.9-30.2,27c2.7,11.5,3.1,21.5,0.9,28.2c-1.6,5.9-4.6,10.2-8.9,12.6
		c-2.6,1.5-4.9,2.2-8.2,2.2c0,0-0.8,0-0.8,0c-9,0-19.8-5.8-30.8-15.7C68.9,144.2,57.9,150,48.9,150c-3.2,0-6.2-0.7-8.8-2.2
		c-4.3-2.4-7.3-6.7-8.9-12.6c-2.4-7.4-1.9-17.2,0.9-28.2C13.7,100.9,2,91.1,2,80c0-11.1,11.7-20.9,30.1-27c-1.4-6.1-2.3-11.8-2.3-17
		c0-4.1,0.5-7.9,1.4-11.2c1.6-5.9,4.6-10.2,8.9-12.6C42.7,10.7,45.7,10,48.9,10 M37.9,51.2c7-1.9,14.7-3.4,23-4.2
		c4.8-6.4,9.8-12.2,14.8-17.2C65.9,21.1,56.4,16,48.9,16c-2.2,0-4.2,0.5-5.8,1.4c-2.9,1.6-4.9,4.6-6.1,9
		C35.4,32.8,35.7,41.4,37.9,51.2 M122.1,51.2c2.2-9.8,2.6-18.5,0.8-24.9c-1.2-4.3-3.2-7.3-6.1-8.9c-1.7-0.9-3.6-1.4-5.8-1.4
		c-7.5,0-17,5.1-26.7,13.8c5,5,10,10.7,14.8,17.2C107.4,47.9,115.1,49.3,122.1,51.2 M69,46.3c3.6-0.2,7.2-0.4,11-0.4
		c3.8,0,7.5,0.2,11.1,0.4c-3.6-4.6-7.3-8.7-11-12.4C76.3,37.6,72.6,41.8,69,46.3 M80,108c5.5,0,10.8-0.2,15.8-0.7
		c3-4.2,6-8.7,8.7-13.4c2.7-4.6,5.2-9.3,7.3-13.9c-2.2-4.6-4.6-9.3-7.3-13.9c-2.8-4.7-5.7-9.2-8.7-13.4C90.8,52.2,85.5,52,80,52
		s-10.8,0.2-15.8,0.7c-3,4.2-6,8.7-8.8,13.4c-2.7,4.6-5.2,9.3-7.3,13.9c2.2,4.6,4.6,9.3,7.3,13.9c2.8,4.7,5.7,9.2,8.7,13.4
		C69.2,107.8,74.5,108,80,108 M115.1,72.8c2.3-5.4,4.1-10.7,5.5-15.8c-5.1-1.4-10.7-2.6-16.9-3.4c2.1,3.1,4.1,6.2,6,9.5
		C111.7,66.3,113.4,69.6,115.1,72.8 M44.9,72.8c1.7-3.3,3.4-6.5,5.3-9.7c1.9-3.3,3.9-6.4,6-9.5c-6.1,0.8-11.8,2-16.9,3.4
		C40.8,62.1,42.7,67.4,44.9,72.8 M126.4,101.2C142.5,95.8,152,87.7,152,80s-9.5-15.8-25.6-21.2c-1.9,6.8-4.5,14-7.8,21.2
		C121.8,87.3,124.5,94.4,126.4,101.2 M33.6,101.2c1.9-6.8,4.5-14,7.8-21.2c-3.3-7.3-5.9-14.4-7.8-21.2C17.5,64.2,8,72.3,8,80
		C8,87.7,17.5,95.8,33.6,101.2 M103.8,106.4c6.1-0.8,11.8-2,16.9-3.4c-1.4-5.1-3.3-10.4-5.5-15.8c-1.7,3.3-3.4,6.5-5.3,9.7
		C107.8,100.2,105.8,103.4,103.8,106.4 M56.2,106.4c-2.1-3.1-4.1-6.2-6-9.5c-1.9-3.2-3.7-6.5-5.3-9.7c-2.2,5.4-4.1,10.7-5.5,15.8
		C44.5,104.4,50.1,105.6,56.2,106.4 M48.9,144c7.5,0,17-5.1,26.7-13.8c-5-5-10-10.8-14.8-17.2c-8.3-0.9-16-2.3-23-4.2
		c-2.2,9.8-2.6,18.5-0.8,24.9c1.2,4.3,3.2,7.3,6.1,9C44.8,143.5,46.8,144,48.9,144 M111.1,144L111.1,144c2.2,0,4.2-0.5,5.8-1.4
		c2.9-1.6,4.9-4.6,6-8.9c1.7-6.4,1.3-15.1-0.8-24.9c-7,1.9-14.7,3.4-23,4.2c-4.8,6.4-9.7,12.2-14.8,17.2
		C94.1,138.9,103.6,144,111.1,144 M80,126.1c3.7-3.7,7.4-7.9,11-12.4c-3.6,0.2-7.1,0.7-10.9,0.7c-3.8,0-7.6-0.5-11.2-0.7
		C72.6,118.2,76.3,122.4,80,126.1 M48.2,8.1c-3.6,0-6.2,0.7-9,2.3c-4.8,2.7-8.1,7.4-9.8,13.9c-1.9,7.2-1.8,16.6,0.5,27.4
		C10.8,58.4,0,68.7,0,80c0,11.4,10.8,21.6,29.8,28.3c-2.2,10.8-2.4,20.2-0.5,27.4c1.7,6.5,5,11.1,9.8,13.9c2.9,1.6,6.3,2.3,9.9,2.3
		c9,0,19.5-5.1,30.9-14.9c11.4,9.9,22.1,15,31.1,15.1c3.6,0,6.9-0.8,9.8-2.5c4.8-2.7,8.1-7.4,9.8-13.8c1.9-7.2,1.8-16.6-0.5-27.4
		c19-6.7,29.8-17,29.8-28.3s-10.8-21.6-29.8-28.3c2.2-10.8,2.4-20.2,0.5-27.4c-1.7-6.5-5-11.1-9.8-13.8c-2.9-1.6-6.2-2.5-9.8-2.5
		c-9,0-19.7,5.2-31,15.1C68.6,13.2,57.9,8.1,48.9,8.1L48.2,8.1z M39.4,48.8c-0.9-4.6-1.5-9-1.6-12.8c0-3.4,0.4-6.4,1.1-9
		c1-3.8,2.7-6.4,5.1-7.7c1.4-0.8,3-1.3,4.8-1.3c6.4,0,14.7,4.4,23.8,12.1c-4.4,4.5-8.8,9.6-12.9,15.2C52.6,45.9,45.8,47.1,39.4,48.8
		L39.4,48.8z M87.3,29.9c9-7.7,17.4-11.9,23.8-11.9c1.8,0,3.5,0.4,4.8,1.2c2.4,1.3,4.1,3.9,5.1,7.7c1.7,5.6,1.5,13.1-0.4,21.9
		c-6.4-1.6-13.2-2.9-20.4-3.7C96.1,39.6,91.7,34.5,87.3,29.9L87.3,29.9z M73.3,44.1c2.2-2.6,4.4-5.1,6.7-7.4
		c2.2,2.3,4.5,4.8,6.7,7.4C84.4,44,82.2,44,80,44S75.6,44,73.3,44.1L73.3,44.1z M65.3,54.6c4.8-0.4,9.8-0.7,14.8-0.7
		c5,0,9.9,0.3,14.7,0.7c2.9,4,5.6,8.3,8.1,12.5c2.4,4.2,4.7,8.5,6.8,12.9c-2.1,4.4-4.4,8.7-6.8,12.9c-2.5,4.3-5.2,8.5-8.1,12.5
		c-4.8,0.4-9.8,0.9-14.7,0.9c-5,0-9.9-0.5-14.8-0.9c-2.9-4-5.6-8.3-8.1-12.5c-2.4-4.2-4.7-8.5-6.8-12.9c2.1-4.4,4.4-8.7,6.8-12.9
		C59.7,62.8,62.4,58.6,65.3,54.6L65.3,54.6z M114.8,68c-1.1-2-2.2-4-3.4-6c-1.1-1.9-2.3-3.9-3.6-5.8c3.5,0.6,7,1.3,10.2,2.2
		C117.2,61.5,116.1,64.8,114.8,68L114.8,68z M41.9,58.4c3.3-0.8,6.7-1.6,10.2-2.2c-1.2,1.9-2.4,3.9-3.6,5.8c-1.1,1.9-2.3,3.9-3.4,6
		C43.9,64.8,42.8,61.5,41.9,58.4L41.9,58.4z M120.7,80c2.8-6.3,5.2-12.6,7-18.7c13.8,5,22.3,12.1,22.3,18.7s-8.5,13.6-22.3,18.7
		C125.9,92.6,123.6,86.3,120.7,80L120.7,80z M32.3,98.7C18.5,93.6,10,86.6,10,80s8.5-13.6,22.3-18.7c1.8,6.1,4.1,12.3,7,18.7
		C36.4,86.3,34.1,92.6,32.3,98.7L32.3,98.7z M107.9,103.8c1.2-1.9,2.4-3.9,3.6-5.8c1.1-1.9,2.3-3.9,3.4-6c1.3,3.3,2.4,6.5,3.3,9.6
		C114.9,102.4,111.5,103.1,107.9,103.8L107.9,103.8z M41.9,101.6c0.9-3.1,2-6.4,3.3-9.6c1.1,2,2.2,4,3.4,6c1.1,1.9,2.3,3.9,3.6,5.8
		C48.5,103.1,45.1,102.4,41.9,101.6L41.9,101.6z M48.9,142c-1.8,0-3.5-0.4-4.8-1.2c-2.4-1.4-4.1-4-5.1-7.7
		c-1.7-5.7-1.5-13.2,0.4-21.9c6.4,1.6,13.2,2.9,20.4,3.7c4.2,5.5,8.5,10.6,12.9,15.2C63.7,137.8,55.3,142,48.9,142L48.9,142
		L48.9,142z M100.2,114.9c7.2-0.8,14-2,20.4-3.7c2.2,9.5,2.4,17,0.4,21.9c-1,3.8-2.7,6.4-5.1,7.7c-1.4,0.8-3,1.2-4.8,1.2v2l0-2
		c-6.4,0-14.8-4.2-23.8-11.9C91.7,125.5,96.1,120.4,100.2,114.9L100.2,114.9z M80,123.2c-2.2-2.3-4.5-4.8-6.7-7.4
		c2.2,0.1,4.5,0.1,6.7,0.1c2.2,0,4.4,0,6.7-0.1C84.5,118.5,82.2,120.9,80,123.2L80,123.2z"/>
</g>
</svg>
