<svg width="59" height="59" viewBox="0 0 59 59" fill="none" xmlns="http://www.w3.org/2000/svg">
<g id="icons">
<path id="Vector" d="M36.5217 12.1739H53.5652C54.908 12.1739 56 11.0819 56 9.73913V2.43478C56 1.092 54.908 0 53.5652 0H36.5217C35.179 0 34.087 1.092 34.087 2.43478V4.86957H28C27.328 4.86957 26.7826 5.41496 26.7826 6.08696V26.7826H21.913V24.3478C21.913 23.005 20.821 21.913 19.4783 21.913H2.43478C1.092 21.913 0 23.005 0 24.3478V31.6522C0 32.995 1.092 34.087 2.43478 34.087H19.4783C20.821 34.087 21.913 32.995 21.913 31.6522V29.2174H26.7826V49.913C26.7826 50.585 27.328 51.1304 28 51.1304H34.087V53.5652C34.087 54.908 35.179 56 36.5217 56H53.5652C54.908 56 56 54.908 56 53.5652V46.2609C56 44.9181 54.908 43.8261 53.5652 43.8261H36.5217C35.179 43.8261 34.087 44.9181 34.087 46.2609V48.6957H29.2174V29.2174H34.087V31.6522C34.087 32.995 35.179 34.087 36.5217 34.087H53.5652C54.908 34.087 56 32.995 56 31.6522V24.3478C56 23.005 54.908 21.913 53.5652 21.913H36.5217C35.179 21.913 34.087 23.005 34.087 24.3478V26.7826H29.2174V7.30435H34.087V9.73913C34.087 11.0819 35.179 12.1739 36.5217 12.1739ZM36.5217 2.43478L53.5652 2.43357V9.73913H36.5217V2.43478ZM19.4783 31.6522H2.43478V24.3478L19.4783 24.3466V31.6522ZM36.5217 46.2609L53.5652 46.2597V53.5652H36.5217V46.2609ZM36.5217 24.3478L53.5652 24.3466V31.6522H36.5217V24.3478Z" fill="white"/>
</g>
</svg>
