<svg width="59" height="59" viewBox="0 0 59 59" fill="none" xmlns="http://www.w3.org/2000/svg">
<g id="icons">
<path id="Vector" d="M21.5833 22.5C21.075 22.5 20.5875 22.7019 20.228 23.0614C19.8686 23.4208 19.6667 23.9083 19.6667 24.4167C19.6667 24.925 19.8686 25.4125 20.228 25.772C20.5875 26.1314 21.075 26.3333 21.5833 26.3333H23.5C24.0083 26.3333 24.4958 26.1314 24.8553 25.772C25.2147 25.4125 25.4167 24.925 25.4167 24.4167C25.4167 23.9083 25.2147 23.4208 24.8553 23.0614C24.4958 22.7019 24.0083 22.5 23.5 22.5H21.5833ZM31.1667 45.5H17.75C17.2417 45.5 16.7542 45.2981 16.3947 44.9386C16.0353 44.5792 15.8333 44.0917 15.8333 43.5833V16.75C15.8333 16.2417 16.0353 15.7542 16.3947 15.3947C16.7542 15.0353 17.2417 14.8333 17.75 14.8333H27.3333V20.5833C27.3333 22.1083 27.9391 23.5709 29.0175 24.6492C30.0958 25.7275 31.5583 26.3333 33.0833 26.3333H38.8333V30.1667C38.8333 30.675 39.0353 31.1625 39.3947 31.522C39.7542 31.8814 40.2417 32.0833 40.75 32.0833C41.2583 32.0833 41.7458 31.8814 42.1053 31.522C42.4647 31.1625 42.6667 30.675 42.6667 30.1667V24.4167C42.6667 24.4167 42.6667 24.4167 42.6667 24.3017C42.6467 24.1256 42.6082 23.9521 42.5517 23.7842V23.6117C42.4595 23.4146 42.3366 23.2334 42.1875 23.075L30.6875 11.575C30.5291 11.4259 30.3479 11.303 30.1508 11.2108C30.0874 11.1997 30.0226 11.1997 29.9592 11.2108C29.7728 11.1112 29.5725 11.0401 29.365 11H17.75C16.225 11 14.7625 11.6058 13.6841 12.6841C12.6058 13.7625 12 15.225 12 16.75V43.5833C12 45.1083 12.6058 46.5709 13.6841 47.6492C14.7625 48.7275 16.225 49.3333 17.75 49.3333H31.1667C31.675 49.3333 32.1625 49.1314 32.522 48.772C32.8814 48.4125 33.0833 47.925 33.0833 47.4167C33.0833 46.9083 32.8814 46.4208 32.522 46.0614C32.1625 45.7019 31.675 45.5 31.1667 45.5ZM31.1667 17.5358L36.1308 22.5H33.0833C32.575 22.5 32.0875 22.2981 31.728 21.9386C31.3686 21.5792 31.1667 21.0917 31.1667 20.5833V17.5358ZM33.0833 30.1667H21.5833C21.075 30.1667 20.5875 30.3686 20.228 30.728C19.8686 31.0875 19.6667 31.575 19.6667 32.0833C19.6667 32.5917 19.8686 33.0792 20.228 33.4386C20.5875 33.7981 21.075 34 21.5833 34H33.0833C33.5917 34 34.0792 33.7981 34.4386 33.4386C34.7981 33.0792 35 32.5917 35 32.0833C35 31.575 34.7981 31.0875 34.4386 30.728C34.0792 30.3686 33.5917 30.1667 33.0833 30.1667ZM45.9442 42.2225C45.766 42.0429 45.554 41.9003 45.3204 41.803C45.0869 41.7056 44.8364 41.6556 44.5833 41.6556C44.3303 41.6556 44.0798 41.7056 43.8462 41.803C43.6127 41.9003 43.4007 42.0429 43.2225 42.2225L42.6667 42.7975V37.8333C42.6667 37.325 42.4647 36.8375 42.1053 36.478C41.7458 36.1186 41.2583 35.9167 40.75 35.9167C40.2417 35.9167 39.7542 36.1186 39.3947 36.478C39.0353 36.8375 38.8333 37.325 38.8333 37.8333V42.7975L38.2775 42.2225C37.9166 41.8616 37.4271 41.6588 36.9167 41.6588C36.4063 41.6588 35.9167 41.8616 35.5558 42.2225C35.1949 42.5834 34.9922 43.0729 34.9922 43.5833C34.9922 44.0937 35.1949 44.5832 35.5558 44.9442L39.3892 48.7775C39.5714 48.952 39.7864 49.0888 40.0217 49.18C40.2511 49.2814 40.4992 49.3338 40.75 49.3338C41.0008 49.3338 41.2489 49.2814 41.4783 49.18C41.7136 49.0888 41.9285 48.952 42.1108 48.7775L45.9442 44.9442C46.1238 44.766 46.2664 44.554 46.3637 44.3204C46.461 44.0869 46.5111 43.8364 46.5111 43.5833C46.5111 43.3303 46.461 43.0798 46.3637 42.8462C46.2664 42.6127 46.1238 42.4007 45.9442 42.2225ZM29.25 41.6667C29.7583 41.6667 30.2458 41.4647 30.6053 41.1053C30.9647 40.7458 31.1667 40.2583 31.1667 39.75C31.1667 39.2417 30.9647 38.7542 30.6053 38.3947C30.2458 38.0353 29.7583 37.8333 29.25 37.8333H21.5833C21.075 37.8333 20.5875 38.0353 20.228 38.3947C19.8686 38.7542 19.6667 39.2417 19.6667 39.75C19.6667 40.2583 19.8686 40.7458 20.228 41.1053C20.5875 41.4647 21.075 41.6667 21.5833 41.6667H29.25Z" fill="white"/>
</g>
</svg>
