<svg width="59" height="59" viewBox="0 0 59 59" fill="none" xmlns="http://www.w3.org/2000/svg">
<g id="icons">
<path id="Vector" d="M11.875 31.8125C11.875 32.1606 11.7367 32.4944 11.4906 32.7406C11.2444 32.9867 10.9106 33.125 10.5625 33.125H5.3125C4.9644 33.125 4.63056 32.9867 4.38442 32.7406C4.13828 32.4944 4 32.1606 4 31.8125C4 31.4644 4.13828 31.1306 4.38442 30.8844C4.63056 30.6383 4.9644 30.5 5.3125 30.5H7.5V15.625H5.3125C4.9644 15.625 4.63056 15.4867 4.38442 15.2406C4.13828 14.9944 4 14.6606 4 14.3125C4 13.9644 4.13828 13.6306 4.38442 13.3844C4.63056 13.1383 4.9644 13 5.3125 13H8.8125C9.03514 12.9991 9.25436 13.0548 9.44952 13.162C9.64468 13.2691 9.80938 13.4242 9.92812 13.6125L17.5625 25.8406L25.1969 13.6125C25.3156 13.4242 25.4803 13.2691 25.6755 13.162C25.8706 13.0548 26.0899 12.9991 26.3125 13H29.8125C30.1606 13 30.4944 13.1383 30.7406 13.3844C30.9867 13.6306 31.125 13.9644 31.125 14.3125C31.125 14.6606 30.9867 14.9944 30.7406 15.2406C30.4944 15.4867 30.1606 15.625 29.8125 15.625H27.625V30.5H29.8125C30.1606 30.5 30.4944 30.6383 30.7406 30.8844C30.9867 31.1306 31.125 31.4644 31.125 31.8125C31.125 32.1606 30.9867 32.4944 30.7406 32.7406C30.4944 32.9867 30.1606 33.125 29.8125 33.125H24.5625C24.2144 33.125 23.8806 32.9867 23.6344 32.7406C23.3883 32.4944 23.25 32.1606 23.25 31.8125C23.25 31.4644 23.3883 31.1306 23.6344 30.8844C23.8806 30.6383 24.2144 30.5 24.5625 30.5H25V18.8844L18.6781 29.0125C18.5604 29.2024 18.3962 29.3592 18.2009 29.4679C18.0057 29.5766 17.7859 29.6336 17.5625 29.6336C17.3391 29.6336 17.1193 29.5766 16.9241 29.4679C16.7288 29.3592 16.5646 29.2024 16.4469 29.0125L10.125 18.8844V30.5H10.5625C10.9106 30.5 11.2444 30.6383 11.4906 30.8844C11.7367 31.1306 11.875 31.4644 11.875 31.8125ZM36.8125 26.125H52.5625C52.9106 26.125 53.2444 25.9867 53.4906 25.7406C53.7367 25.4944 53.875 25.1606 53.875 24.8125C53.875 24.4644 53.7367 24.1306 53.4906 23.8844C53.2444 23.6383 52.9106 23.5 52.5625 23.5H36.8125C36.4644 23.5 36.1306 23.6383 35.8844 23.8844C35.6383 24.1306 35.5 24.4644 35.5 24.8125C35.5 25.1606 35.6383 25.4944 35.8844 25.7406C36.1306 25.9867 36.4644 26.125 36.8125 26.125V26.125ZM52.5625 30.5H36.8125C36.4644 30.5 36.1306 30.6383 35.8844 30.8844C35.6383 31.1306 35.5 31.4644 35.5 31.8125C35.5 32.1606 35.6383 32.4944 35.8844 32.7406C36.1306 32.9867 36.4644 33.125 36.8125 33.125H52.5625C52.9106 33.125 53.2444 32.9867 53.4906 32.7406C53.7367 32.4944 53.875 32.1606 53.875 31.8125C53.875 31.4644 53.7367 31.1306 53.4906 30.8844C53.2444 30.6383 52.9106 30.5 52.5625 30.5ZM52.5625 37.5H15.8125C15.4644 37.5 15.1306 37.6383 14.8844 37.8844C14.6383 38.1306 14.5 38.4644 14.5 38.8125C14.5 39.1606 14.6383 39.4944 14.8844 39.7406C15.1306 39.9867 15.4644 40.125 15.8125 40.125H52.5625C52.9106 40.125 53.2444 39.9867 53.4906 39.7406C53.7367 39.4944 53.875 39.1606 53.875 38.8125C53.875 38.4644 53.7367 38.1306 53.4906 37.8844C53.2444 37.6383 52.9106 37.5 52.5625 37.5ZM52.5625 44.5H15.8125C15.4644 44.5 15.1306 44.6383 14.8844 44.8844C14.6383 45.1306 14.5 45.4644 14.5 45.8125C14.5 46.1606 14.6383 46.4944 14.8844 46.7406C15.1306 46.9867 15.4644 47.125 15.8125 47.125H52.5625C52.9106 47.125 53.2444 46.9867 53.4906 46.7406C53.7367 46.4944 53.875 46.1606 53.875 45.8125C53.875 45.4644 53.7367 45.1306 53.4906 44.8844C53.2444 44.6383 52.9106 44.5 52.5625 44.5V44.5Z" fill="white"/>
</g>
</svg>
