<svg width="59" height="59" viewBox="0 0 59 59" fill="none" xmlns="http://www.w3.org/2000/svg">
<g id="icons">
<path id="Vector" d="M35.4341 36.0905L26.1987 45.264L22.5775 41.6671C22.3166 41.4058 22.0061 41.1983 21.664 41.0568C21.322 40.9152 20.955 40.8423 20.5845 40.8423C20.2139 40.8423 19.847 40.9152 19.5049 41.0568C19.1629 41.1983 18.8524 41.4058 18.5914 41.6671C18.0686 42.1895 17.7751 42.8962 17.7751 43.6329C17.7751 44.3695 18.0686 45.0762 18.5914 45.5986L24.2056 51.1752C24.4666 51.4366 24.7771 51.644 25.1191 51.7856C25.4612 51.9271 25.8281 52 26.1987 52C26.5693 52 26.9362 51.9271 27.2782 51.7856C27.6203 51.644 27.9308 51.4366 28.1917 51.1752L39.4202 40.022C39.943 39.4996 40.2365 38.7929 40.2365 38.0563C40.2365 37.3196 39.943 36.6129 39.4202 36.0905C39.1592 35.8292 38.8487 35.6217 38.5067 35.4802C38.1646 35.3386 37.7977 35.2657 37.4271 35.2657C37.0565 35.2657 36.6896 35.3386 36.3476 35.4802C36.0055 35.6217 35.695 35.8292 35.4341 36.0905ZM47.0274 19.7232C45.3104 15.8079 42.3478 12.56 38.5941 10.4776C34.8404 8.3952 30.5027 7.59316 26.2461 8.19446C21.9894 8.79577 18.0488 10.7672 15.0284 13.8066C12.008 16.8459 10.0746 20.7854 9.52448 25.021C7.18333 25.5979 5.09147 26.9085 3.55864 28.7585C2.02581 30.6085 1.1335 32.8996 1.01383 35.2926C0.894162 37.6856 1.55349 40.0533 2.8942 42.0451C4.23491 44.0369 6.18572 45.5469 8.45778 46.3515C8.81633 46.5384 9.21135 46.646 9.61573 46.667C10.0201 46.6879 10.4243 46.6218 10.8005 46.473C11.1767 46.3242 11.516 46.0963 11.7952 45.805C12.0744 45.5137 12.2869 45.1659 12.418 44.7853C12.5491 44.4048 12.5958 44.0006 12.5548 43.6004C12.5139 43.2003 12.3862 42.8137 12.1807 42.4671C11.9752 42.1206 11.6966 41.8223 11.3641 41.5928C11.0315 41.3632 10.653 41.2079 10.2543 41.1373C9.16021 40.7445 8.21598 40.0237 7.55219 39.0746C6.88839 38.1256 6.53782 36.9951 6.54894 35.8396C6.54894 34.3606 7.14044 32.9421 8.19331 31.8963C9.24618 30.8505 10.6742 30.263 12.1632 30.263C12.9076 30.263 13.6216 29.9692 14.1481 29.4463C14.6745 28.9234 14.9703 28.2142 14.9703 27.4747C14.984 24.1793 16.1725 20.9952 18.325 18.4875C20.4774 15.9797 23.4546 14.3104 26.7283 13.7756C30.002 13.2409 33.3605 13.8754 36.2081 15.5665C39.0556 17.2575 41.208 19.8959 42.2834 23.0134C42.4481 23.4873 42.7384 23.9084 43.1237 24.2323C43.509 24.5561 43.9751 24.7708 44.473 24.8537C46.3427 25.2046 48.0376 26.1742 49.2816 27.6044C50.5256 29.0346 51.2453 30.8411 51.3234 32.7296C51.4015 34.6181 50.8335 36.4772 49.7119 38.0039C48.5902 39.5307 46.9811 40.6352 45.1467 41.1373C44.4022 41.2298 43.7251 41.6122 43.2645 42.2005C42.8039 42.7887 42.5974 43.5347 42.6904 44.2742C42.7835 45.0137 43.1685 45.6862 43.7607 46.1437C44.353 46.6013 45.104 46.8064 45.8484 46.7139H46.5502C49.5044 45.9385 52.1231 44.2267 54.0087 41.8385C55.8943 39.4503 56.9438 36.516 56.9978 33.4814C57.0518 30.4468 56.1073 27.4776 54.3078 25.0246C52.5084 22.5717 49.9522 20.7691 47.0274 19.8905V19.7232Z" fill="white"/>
</g>
</svg>
