<svg width="56" height="27" viewBox="0 0 56 27" fill="none" xmlns="http://www.w3.org/2000/svg">
<g id="Group">
<path id="Vector" d="M5.10595 15.6042C3.44662 15.6042 1.83779 15.0697 0.790486 14.5326L0 17.7493C0.969825 18.2856 2.91122 18.7958 4.87698 18.7958C9.60075 18.7958 11.8216 16.3451 11.8216 13.46C11.8216 11.0346 10.3912 9.45185 7.35378 8.32794C5.13206 7.48435 4.16224 7.0003 4.16224 5.9025C4.16224 5.00842 4.97884 4.24231 6.66428 4.24231C8.34973 4.24231 9.5755 4.72809 10.2641 5.05978L11.133 1.9196C10.1109 1.45994 8.68142 1.05164 6.74089 1.05164C2.68138 1.05164 0.229833 3.29773 0.229833 6.23419C0.229833 8.73624 2.09374 10.319 4.9536 11.3149C7.02122 12.0558 7.83869 12.6686 7.83869 13.7395C7.83869 14.8642 6.89325 15.6042 5.10595 15.6042Z" fill="white"/>
<path id="Vector_2" d="M25.4305 15.3492H18.3588V11.2644H24.6896V8.09811H18.3588V4.52351H25.0735V1.33197H14.4516V18.5407H25.4305V15.3492Z" fill="white"/>
<path id="Vector_3" d="M38.5895 19.8466C41.0053 19.8466 43.2192 18.9769 44.943 17.5369L48.3704 20.7355C48.3652 21.0924 48.4949 21.4458 48.7752 21.7079L53.8046 26.4038C54.0562 26.6388 54.3748 26.7546 54.6943 26.7546C55.0434 26.7546 55.3925 26.6153 55.6493 26.3385C56.1412 25.8127 56.1125 24.9839 55.5867 24.4929L50.5573 19.7978C50.277 19.5358 49.9131 19.4322 49.5596 19.4609L46.1774 16.3051C47.6322 14.5787 48.5141 12.3518 48.5141 9.92199C48.5141 4.4504 44.0637 0 38.5921 0C33.1205 0 28.6675 4.45214 28.6675 9.92286C28.6666 15.3962 33.1179 19.8466 38.5895 19.8466ZM38.5895 2.61261C42.6211 2.61261 45.9006 5.89208 45.9006 9.92286C45.9006 13.9536 42.6194 17.234 38.5895 17.234C34.5596 17.234 31.2783 13.9536 31.2783 9.92286C31.2783 5.89208 34.5578 2.61261 38.5895 2.61261Z" fill="white"/>
</g>
</svg>
